<svg width="292" height="467" viewBox="0 0 292 467" fill="none" xmlns="http://www.w3.org/2000/svg">
<path fill-rule="evenodd" clip-rule="evenodd" d="M0 0H75C132.552 0 187.747 12.9589 228.442 36.0259C269.138 59.0928 292 90.3784 292 123C292 155.622 269.138 186.907 228.442 209.974C211.329 219.674 191.652 227.587 170.314 233.5C191.652 239.413 211.329 247.326 228.442 257.026C269.138 280.093 292 311.378 292 344C292 376.622 269.138 407.907 228.442 430.974C187.747 454.041 132.552 467 75 467H0V0ZM75 429.263C100.533 424.813 123.996 417.57 143.503 407.921C177.772 390.968 197.025 367.975 197.025 344C197.025 320.025 177.772 297.032 143.503 280.079C123.996 270.429 100.533 263.187 75 258.737L75 429.263ZM75 208.263L75 37.7373C100.533 42.1867 123.996 49.4295 143.503 59.0792C177.772 76.032 197.025 99.025 197.025 123C197.025 146.975 177.772 169.968 143.503 186.921C123.996 196.57 100.533 203.813 75 208.263Z" fill="url(#paint0_linear_35_15)"/>
<defs>
<linearGradient id="paint0_linear_35_15" x1="199" y1="276.5" x2="-37.5" y2="640.5" gradientUnits="userSpaceOnUse">
<stop stop-color="#525252"/>
<stop offset="1" stop-color="#D9D9D9" stop-opacity="0"/>
</linearGradient>
</defs>
</svg>
